G04 #@! TF.GenerationSoftware,KiCad,Pcbnew,(5.0.2)-1*
G04 #@! TF.CreationDate,2019-03-18T20:08:10-07:00*
G04 #@! TF.ProjectId,speaker,73706561-6b65-4722-9e6b-696361645f70,rev?*
G04 #@! TF.SameCoordinates,Original*
G04 #@! TF.FileFunction,Copper,L2,Bot*
G04 #@! TF.FilePolarity,Positive*
%FSLAX46Y46*%
G04 Gerber Fmt 4.6, Leading zero omitted, Abs format (unit mm)*
G04 Created by KiCad (PCBNEW (5.0.2)-1) date 3/18/2019 8:08:10 PM*
%MOMM*%
%LPD*%
G01*
G04 APERTURE LIST*
G04 #@! TA.AperFunction,ComponentPad*
%ADD10C,2.600000*%
G04 #@! TD*
G04 #@! TA.AperFunction,ComponentPad*
%ADD11R,2.600000X2.600000*%
G04 #@! TD*
G04 #@! TA.AperFunction,ComponentPad*
%ADD12C,1.600000*%
G04 #@! TD*
G04 #@! TA.AperFunction,ComponentPad*
%ADD13O,1.600000X1.600000*%
G04 #@! TD*
G04 #@! TA.AperFunction,ViaPad*
%ADD14C,0.800000*%
G04 #@! TD*
G04 #@! TA.AperFunction,Conductor*
%ADD15C,0.250000*%
G04 #@! TD*
G04 APERTURE END LIST*
D10*
G04 #@! TO.P,AudioOut1,4*
G04 #@! TO.N,GND*
X205740000Y-105170000D03*
G04 #@! TO.P,AudioOut1,3*
G04 #@! TO.N,Net-(AudioOut1-Pad3)*
X205740000Y-100170000D03*
G04 #@! TO.P,AudioOut1,2*
G04 #@! TO.N,GND*
X205740000Y-95170000D03*
D11*
G04 #@! TO.P,AudioOut1,1*
G04 #@! TO.N,Net-(AudioOut1-Pad1)*
X205740000Y-90170000D03*
G04 #@! TD*
D12*
G04 #@! TO.P,C1,2*
G04 #@! TO.N,GND*
X176570000Y-102870000D03*
G04 #@! TO.P,C1,1*
G04 #@! TO.N,/-9v*
X179070000Y-102870000D03*
G04 #@! TD*
G04 #@! TO.P,C2,1*
G04 #@! TO.N,GND*
X176530000Y-106680000D03*
G04 #@! TO.P,C2,2*
G04 #@! TO.N,/-9v*
X179030000Y-106680000D03*
G04 #@! TD*
G04 #@! TO.P,C3,1*
G04 #@! TO.N,/10v*
X186690000Y-102870000D03*
G04 #@! TO.P,C3,2*
G04 #@! TO.N,GND*
X184190000Y-102870000D03*
G04 #@! TD*
G04 #@! TO.P,C4,2*
G04 #@! TO.N,/10v*
X186650000Y-106680000D03*
G04 #@! TO.P,C4,1*
G04 #@! TO.N,GND*
X184150000Y-106680000D03*
G04 #@! TD*
D11*
G04 #@! TO.P,PowerIn1,1*
G04 #@! TO.N,/-9v*
X179070000Y-115570000D03*
D10*
G04 #@! TO.P,PowerIn1,2*
G04 #@! TO.N,GND*
X174070000Y-115570000D03*
G04 #@! TO.P,PowerIn1,3*
X169070000Y-115570000D03*
G04 #@! TO.P,PowerIn1,4*
G04 #@! TO.N,/10v*
X164070000Y-115570000D03*
G04 #@! TD*
D13*
G04 #@! TO.P,R1,2*
G04 #@! TO.N,GND*
X167640000Y-86360000D03*
D12*
G04 #@! TO.P,R1,1*
G04 #@! TO.N,Net-(R1-Pad1)*
X157480000Y-86360000D03*
G04 #@! TD*
G04 #@! TO.P,R2,1*
G04 #@! TO.N,Net-(AudioOut1-Pad3)*
X157480000Y-82550000D03*
D13*
G04 #@! TO.P,R2,2*
G04 #@! TO.N,Net-(R1-Pad1)*
X167640000Y-82550000D03*
G04 #@! TD*
D12*
G04 #@! TO.P,R3,1*
G04 #@! TO.N,Net-(R3-Pad1)*
X171450000Y-82550000D03*
D13*
G04 #@! TO.P,R3,2*
G04 #@! TO.N,GND*
X181610000Y-82550000D03*
G04 #@! TD*
G04 #@! TO.P,R4,2*
G04 #@! TO.N,Net-(R3-Pad1)*
X181610000Y-86360000D03*
D12*
G04 #@! TO.P,R4,1*
G04 #@! TO.N,Net-(AudioOut1-Pad1)*
X171450000Y-86360000D03*
G04 #@! TD*
G04 #@! TO.P,C5,1*
G04 #@! TO.N,/-9v*
X153670000Y-113030000D03*
G04 #@! TO.P,C5,2*
G04 #@! TO.N,GND*
X156170000Y-113030000D03*
G04 #@! TD*
G04 #@! TO.P,C6,2*
G04 #@! TO.N,/10v*
X156170000Y-116840000D03*
G04 #@! TO.P,C6,1*
G04 #@! TO.N,GND*
X153670000Y-116840000D03*
G04 #@! TD*
D13*
G04 #@! TO.P,R5,2*
G04 #@! TO.N,GND*
X151130000Y-106680000D03*
D12*
G04 #@! TO.P,R5,1*
G04 #@! TO.N,/LAudio*
X161290000Y-106680000D03*
G04 #@! TD*
G04 #@! TO.P,R6,1*
G04 #@! TO.N,/Raudio*
X151130000Y-90170000D03*
D13*
G04 #@! TO.P,R6,2*
G04 #@! TO.N,GND*
X161290000Y-90170000D03*
G04 #@! TD*
D14*
G04 #@! TO.N,/-9v*
X170096500Y-93693600D03*
G04 #@! TO.N,/10v*
X196990400Y-91954800D03*
X163840000Y-99280100D03*
G04 #@! TD*
D15*
G04 #@! TO.N,GND*
X169070000Y-115570000D02*
X174070000Y-115570000D01*
X151130000Y-106680000D02*
X151130000Y-107805300D01*
X151130000Y-107805300D02*
X156170000Y-112845300D01*
X156170000Y-112845300D02*
X156170000Y-113030000D01*
X176570000Y-105540800D02*
X176570000Y-106640000D01*
X176570000Y-106640000D02*
X176530000Y-106680000D01*
X176570000Y-102870000D02*
X176570000Y-105540800D01*
X184150000Y-105540800D02*
X176570000Y-105540800D01*
X184150000Y-105540800D02*
X185505400Y-104185400D01*
X184150000Y-106680000D02*
X184150000Y-105540800D01*
X174070000Y-115570000D02*
X174070000Y-109140000D01*
X174070000Y-109140000D02*
X176530000Y-106680000D01*
X185505400Y-104185400D02*
X204755400Y-104185400D01*
X184190000Y-102870000D02*
X185505400Y-104185400D01*
X204755400Y-104185400D02*
X205740000Y-105170000D01*
X205740000Y-95170000D02*
X207397400Y-96827400D01*
X207397400Y-96827400D02*
X207397400Y-101543400D01*
X207397400Y-101543400D02*
X204755400Y-104185400D01*
X161290000Y-90170000D02*
X162415300Y-90170000D01*
X162415300Y-90170000D02*
X166225300Y-86360000D01*
X166225300Y-86360000D02*
X167640000Y-86360000D01*
X156170000Y-113030000D02*
X153670000Y-115530000D01*
X153670000Y-115530000D02*
X153670000Y-116840000D01*
G04 #@! TO.N,Net-(AudioOut1-Pad3)*
X205740000Y-100170000D02*
X205740000Y-99644700D01*
X205740000Y-99644700D02*
X194477400Y-88382100D01*
X194477400Y-88382100D02*
X171880500Y-88382100D01*
X171880500Y-88382100D02*
X166048400Y-82550000D01*
X166048400Y-82550000D02*
X157480000Y-82550000D01*
G04 #@! TO.N,/-9v*
X170096500Y-93693600D02*
X170096500Y-93896500D01*
X170096500Y-93896500D02*
X179070000Y-102870000D01*
G04 #@! TO.N,/10v*
X186690000Y-102870000D02*
X196990400Y-92569600D01*
X196990400Y-92569600D02*
X196990400Y-91954800D01*
X164070000Y-115570000D02*
X164070000Y-99510100D01*
X164070000Y-99510100D02*
X163840000Y-99280100D01*
G04 #@! TO.N,Net-(R3-Pad1)*
X181610000Y-86360000D02*
X180484700Y-86360000D01*
X171450000Y-82550000D02*
X176674700Y-82550000D01*
X176674700Y-82550000D02*
X180484700Y-86360000D01*
G04 #@! TD*
M02*
