G04 #@! TF.GenerationSoftware,KiCad,Pcbnew,(5.0.2)-1*
G04 #@! TF.CreationDate,2019-03-18T20:08:10-07:00*
G04 #@! TF.ProjectId,speaker,73706561-6b65-4722-9e6b-696361645f70,rev?*
G04 #@! TF.SameCoordinates,Original*
G04 #@! TF.FileFunction,Copper,L1,Top*
G04 #@! TF.FilePolarity,Positive*
%FSLAX46Y46*%
G04 Gerber Fmt 4.6, Leading zero omitted, Abs format (unit mm)*
G04 Created by KiCad (PCBNEW (5.0.2)-1) date 3/18/2019 8:08:10 PM*
%MOMM*%
%LPD*%
G01*
G04 APERTURE LIST*
G04 #@! TA.AperFunction,ComponentPad*
%ADD10C,2.600000*%
G04 #@! TD*
G04 #@! TA.AperFunction,ComponentPad*
%ADD11R,2.600000X2.600000*%
G04 #@! TD*
G04 #@! TA.AperFunction,ComponentPad*
%ADD12C,1.600000*%
G04 #@! TD*
G04 #@! TA.AperFunction,SMDPad,CuDef*
%ADD13R,1.800000X1.650000*%
G04 #@! TD*
G04 #@! TA.AperFunction,ComponentPad*
%ADD14O,1.600000X1.600000*%
G04 #@! TD*
G04 #@! TA.AperFunction,SMDPad,CuDef*
%ADD15R,1.549400X0.609600*%
G04 #@! TD*
G04 #@! TA.AperFunction,SMDPad,CuDef*
%ADD16R,10.464800X10.871200*%
G04 #@! TD*
G04 #@! TA.AperFunction,SMDPad,CuDef*
%ADD17R,1.016000X2.692400*%
G04 #@! TD*
G04 #@! TA.AperFunction,ViaPad*
%ADD18C,0.800000*%
G04 #@! TD*
G04 #@! TA.AperFunction,Conductor*
%ADD19C,0.250000*%
G04 #@! TD*
G04 APERTURE END LIST*
D10*
G04 #@! TO.P,AudioOut1,4*
G04 #@! TO.N,GND*
X205740000Y-105170000D03*
G04 #@! TO.P,AudioOut1,3*
G04 #@! TO.N,Net-(AudioOut1-Pad3)*
X205740000Y-100170000D03*
G04 #@! TO.P,AudioOut1,2*
G04 #@! TO.N,GND*
X205740000Y-95170000D03*
D11*
G04 #@! TO.P,AudioOut1,1*
G04 #@! TO.N,Net-(AudioOut1-Pad1)*
X205740000Y-90170000D03*
G04 #@! TD*
D12*
G04 #@! TO.P,C1,2*
G04 #@! TO.N,GND*
X176570000Y-102870000D03*
G04 #@! TO.P,C1,1*
G04 #@! TO.N,/-9v*
X179070000Y-102870000D03*
G04 #@! TD*
G04 #@! TO.P,C2,1*
G04 #@! TO.N,GND*
X176530000Y-106680000D03*
G04 #@! TO.P,C2,2*
G04 #@! TO.N,/-9v*
X179030000Y-106680000D03*
G04 #@! TD*
G04 #@! TO.P,C3,1*
G04 #@! TO.N,/10v*
X186690000Y-102870000D03*
G04 #@! TO.P,C3,2*
G04 #@! TO.N,GND*
X184190000Y-102870000D03*
G04 #@! TD*
G04 #@! TO.P,C4,2*
G04 #@! TO.N,/10v*
X186650000Y-106680000D03*
G04 #@! TO.P,C4,1*
G04 #@! TO.N,GND*
X184150000Y-106680000D03*
G04 #@! TD*
D13*
G04 #@! TO.P,J1,4*
G04 #@! TO.N,GND*
X151690000Y-93965000D03*
G04 #@! TO.P,J1,2*
G04 #@! TO.N,/Raudio*
X158140000Y-93965000D03*
G04 #@! TO.P,J1,1*
G04 #@! TO.N,GND*
X151690000Y-101615000D03*
G04 #@! TO.P,J1,3*
G04 #@! TO.N,/LAudio*
X154440000Y-101615000D03*
G04 #@! TD*
D11*
G04 #@! TO.P,PowerIn1,1*
G04 #@! TO.N,/-9v*
X179070000Y-115570000D03*
D10*
G04 #@! TO.P,PowerIn1,2*
G04 #@! TO.N,GND*
X174070000Y-115570000D03*
G04 #@! TO.P,PowerIn1,3*
X169070000Y-115570000D03*
G04 #@! TO.P,PowerIn1,4*
G04 #@! TO.N,/10v*
X164070000Y-115570000D03*
G04 #@! TD*
D14*
G04 #@! TO.P,R1,2*
G04 #@! TO.N,GND*
X167640000Y-86360000D03*
D12*
G04 #@! TO.P,R1,1*
G04 #@! TO.N,Net-(R1-Pad1)*
X157480000Y-86360000D03*
G04 #@! TD*
G04 #@! TO.P,R2,1*
G04 #@! TO.N,Net-(AudioOut1-Pad3)*
X157480000Y-82550000D03*
D14*
G04 #@! TO.P,R2,2*
G04 #@! TO.N,Net-(R1-Pad1)*
X167640000Y-82550000D03*
G04 #@! TD*
D12*
G04 #@! TO.P,R3,1*
G04 #@! TO.N,Net-(R3-Pad1)*
X171450000Y-82550000D03*
D14*
G04 #@! TO.P,R3,2*
G04 #@! TO.N,GND*
X181610000Y-82550000D03*
G04 #@! TD*
G04 #@! TO.P,R4,2*
G04 #@! TO.N,Net-(R3-Pad1)*
X181610000Y-86360000D03*
D12*
G04 #@! TO.P,R4,1*
G04 #@! TO.N,Net-(AudioOut1-Pad1)*
X171450000Y-86360000D03*
G04 #@! TD*
D15*
G04 #@! TO.P,U1,1*
G04 #@! TO.N,Net-(U1-Pad1)*
X170340000Y-98425000D03*
G04 #@! TO.P,U1,2*
G04 #@! TO.N,Net-(R1-Pad1)*
X170340000Y-97155000D03*
G04 #@! TO.P,U1,3*
G04 #@! TO.N,/Raudio*
X170340000Y-95885000D03*
G04 #@! TO.P,U1,4*
G04 #@! TO.N,/-9v*
X170340000Y-94615000D03*
G04 #@! TO.P,U1,5*
G04 #@! TO.N,/LAudio*
X164940000Y-94615000D03*
G04 #@! TO.P,U1,6*
G04 #@! TO.N,Net-(R3-Pad1)*
X164940000Y-95885000D03*
G04 #@! TO.P,U1,7*
G04 #@! TO.N,Net-(U1-Pad7)*
X164940000Y-97155000D03*
G04 #@! TO.P,U1,8*
G04 #@! TO.N,/10v*
X164940000Y-98425000D03*
G04 #@! TD*
D16*
G04 #@! TO.P,U2,6*
G04 #@! TO.N,Net-(U2-Pad6)*
X194310000Y-114300000D03*
D17*
G04 #@! TO.P,U2,5*
G04 #@! TO.N,/10v*
X190906400Y-106019600D03*
G04 #@! TO.P,U2,4*
G04 #@! TO.N,Net-(AudioOut1-Pad3)*
X192608200Y-106019600D03*
G04 #@! TO.P,U2,3*
G04 #@! TO.N,/-9v*
X194310000Y-106019600D03*
G04 #@! TO.P,U2,2*
G04 #@! TO.N,Net-(U1-Pad1)*
X196011800Y-106019600D03*
G04 #@! TO.P,U2,1*
G04 #@! TO.N,Net-(U2-Pad1)*
X197713600Y-106019600D03*
G04 #@! TD*
G04 #@! TO.P,U3,1*
G04 #@! TO.N,Net-(U3-Pad1)*
X190906400Y-89560400D03*
G04 #@! TO.P,U3,2*
G04 #@! TO.N,Net-(U1-Pad7)*
X192608200Y-89560400D03*
G04 #@! TO.P,U3,3*
G04 #@! TO.N,/-9v*
X194310000Y-89560400D03*
G04 #@! TO.P,U3,4*
G04 #@! TO.N,Net-(AudioOut1-Pad1)*
X196011800Y-89560400D03*
G04 #@! TO.P,U3,5*
G04 #@! TO.N,/10v*
X197713600Y-89560400D03*
D16*
G04 #@! TO.P,U3,6*
G04 #@! TO.N,Net-(U3-Pad6)*
X194310000Y-81280000D03*
G04 #@! TD*
D12*
G04 #@! TO.P,C5,1*
G04 #@! TO.N,/-9v*
X153670000Y-113030000D03*
G04 #@! TO.P,C5,2*
G04 #@! TO.N,GND*
X156170000Y-113030000D03*
G04 #@! TD*
G04 #@! TO.P,C6,2*
G04 #@! TO.N,/10v*
X156170000Y-116840000D03*
G04 #@! TO.P,C6,1*
G04 #@! TO.N,GND*
X153670000Y-116840000D03*
G04 #@! TD*
D14*
G04 #@! TO.P,R5,2*
G04 #@! TO.N,GND*
X151130000Y-106680000D03*
D12*
G04 #@! TO.P,R5,1*
G04 #@! TO.N,/LAudio*
X161290000Y-106680000D03*
G04 #@! TD*
G04 #@! TO.P,R6,1*
G04 #@! TO.N,/Raudio*
X151130000Y-90170000D03*
D14*
G04 #@! TO.P,R6,2*
G04 #@! TO.N,GND*
X161290000Y-90170000D03*
G04 #@! TD*
D18*
G04 #@! TO.N,/-9v*
X170096500Y-93693600D03*
G04 #@! TO.N,/10v*
X196990400Y-91954800D03*
X163840000Y-99280100D03*
G04 #@! TD*
D19*
G04 #@! TO.N,GND*
X156170000Y-113030000D02*
X166530000Y-113030000D01*
X166530000Y-113030000D02*
X169070000Y-115570000D01*
X181610000Y-82550000D02*
X180484700Y-82550000D01*
X167640000Y-86360000D02*
X168765300Y-86360000D01*
X168765300Y-86360000D02*
X171450000Y-83675300D01*
X171450000Y-83675300D02*
X179359400Y-83675300D01*
X179359400Y-83675300D02*
X180484700Y-82550000D01*
X151690000Y-93965000D02*
X151690000Y-92814700D01*
X161290000Y-90170000D02*
X160164700Y-90170000D01*
X160164700Y-90170000D02*
X159003600Y-89008900D01*
X159003600Y-89008900D02*
X150671100Y-89008900D01*
X150671100Y-89008900D02*
X149969600Y-89710400D01*
X149969600Y-89710400D02*
X149969600Y-91094300D01*
X149969600Y-91094300D02*
X151690000Y-92814700D01*
X151690000Y-93965000D02*
X151690000Y-101615000D01*
X151130000Y-106680000D02*
X151130000Y-105554700D01*
X151690000Y-101615000D02*
X151690000Y-104994700D01*
X151690000Y-104994700D02*
X151130000Y-105554700D01*
G04 #@! TO.N,Net-(AudioOut1-Pad3)*
X205740000Y-100170000D02*
X197620000Y-100170000D01*
X197620000Y-100170000D02*
X192608000Y-105181000D01*
X192608000Y-105181000D02*
X192608000Y-105600500D01*
X192608000Y-105600500D02*
X192608200Y-105600700D01*
X192608200Y-105600700D02*
X192608200Y-106019600D01*
X192608000Y-105600500D02*
X192608000Y-106020000D01*
G04 #@! TO.N,Net-(AudioOut1-Pad1)*
X196474500Y-88259700D02*
X195637900Y-87423100D01*
X195637900Y-87423100D02*
X183507900Y-87423100D01*
X183507900Y-87423100D02*
X183432100Y-87498900D01*
X183432100Y-87498900D02*
X172588900Y-87498900D01*
X172588900Y-87498900D02*
X171450000Y-86360000D01*
X196474500Y-88259700D02*
X196012000Y-88722200D01*
X196012000Y-88722200D02*
X196012000Y-89141300D01*
X205740000Y-90170000D02*
X204190000Y-90170000D01*
X204190000Y-90170000D02*
X201909000Y-87889200D01*
X201909000Y-87889200D02*
X196845000Y-87889200D01*
X196845000Y-87889200D02*
X196474500Y-88259700D01*
X196012000Y-89141300D02*
X196011800Y-89141500D01*
X196011800Y-89141500D02*
X196011800Y-89560400D01*
X196012000Y-89141300D02*
X196012000Y-89560400D01*
G04 #@! TO.N,/-9v*
X188985300Y-101733000D02*
X191774800Y-104522500D01*
X191774800Y-104522500D02*
X191774800Y-107511000D01*
X191774800Y-107511000D02*
X191954900Y-107691100D01*
X191954900Y-107691100D02*
X194310000Y-107691100D01*
X179070000Y-102870000D02*
X180207000Y-101733000D01*
X180207000Y-101733000D02*
X188985300Y-101733000D01*
X188985300Y-101733000D02*
X188985300Y-96556600D01*
X188985300Y-96556600D02*
X194310000Y-91231900D01*
X194310000Y-106019600D02*
X194310000Y-107691100D01*
X194310000Y-89560400D02*
X194310000Y-91231900D01*
X179030000Y-106680000D02*
X179030000Y-102910000D01*
X179030000Y-102910000D02*
X179070000Y-102870000D01*
X170340000Y-94615000D02*
X170340000Y-93937100D01*
X170340000Y-93937100D02*
X170096500Y-93693600D01*
X179070000Y-115570000D02*
X179070000Y-110490000D01*
X179070000Y-110490000D02*
X179070000Y-106720000D01*
X179070000Y-106720000D02*
X179030000Y-106680000D01*
X179070000Y-110490000D02*
X156210000Y-110490000D01*
X156210000Y-110490000D02*
X153670000Y-113030000D01*
G04 #@! TO.N,/10v*
X197713600Y-89560400D02*
X197713600Y-91231900D01*
X196990400Y-91954800D02*
X197713300Y-91231900D01*
X197713300Y-91231900D02*
X197713600Y-91231900D01*
X186650000Y-104795000D02*
X187096900Y-104348100D01*
X187096900Y-104348100D02*
X190906400Y-104348100D01*
X163840000Y-99280100D02*
X163840000Y-98425000D01*
X164940000Y-98425000D02*
X163840000Y-98425000D01*
X190906400Y-106019600D02*
X190906400Y-104348100D01*
X186650000Y-104795000D02*
X186650000Y-102910000D01*
X186650000Y-102910000D02*
X186690000Y-102870000D01*
X186650000Y-106680000D02*
X186650000Y-104795000D01*
X186650000Y-106680000D02*
X186650000Y-111175000D01*
X186650000Y-111175000D02*
X180630000Y-117195000D01*
X180630000Y-117195000D02*
X165695000Y-117195000D01*
X165695000Y-117195000D02*
X164070000Y-115570000D01*
X164070000Y-115570000D02*
X157440000Y-115570000D01*
X157440000Y-115570000D02*
X156170000Y-116840000D01*
G04 #@! TO.N,/Raudio*
X158140000Y-93965000D02*
X154925000Y-93965000D01*
X154925000Y-93965000D02*
X151130000Y-90170000D01*
X158140000Y-93965000D02*
X168025000Y-93965000D01*
X168025000Y-93965000D02*
X169315000Y-95254800D01*
X169315000Y-95254800D02*
X169315000Y-95330200D01*
X169315000Y-95330200D02*
X169870000Y-95885000D01*
X169870000Y-95885000D02*
X170340000Y-95885000D01*
G04 #@! TO.N,/LAudio*
X161290000Y-106680000D02*
X161290000Y-97795100D01*
X161290000Y-97795100D02*
X164470000Y-94615000D01*
X164470000Y-94615000D02*
X164940000Y-94615000D01*
X154440000Y-101615000D02*
X156225000Y-101615000D01*
X156225000Y-101615000D02*
X161290000Y-106680000D01*
G04 #@! TO.N,Net-(R1-Pad1)*
X165996000Y-86360000D02*
X165996000Y-85319300D01*
X165996000Y-85319300D02*
X167640000Y-83675300D01*
X171440000Y-97155000D02*
X171440000Y-93150800D01*
X171440000Y-93150800D02*
X165996000Y-87706800D01*
X165996000Y-87706800D02*
X165996000Y-86360000D01*
X165996000Y-86360000D02*
X157480000Y-86360000D01*
X167640000Y-82550000D02*
X167640000Y-83675300D01*
X170340000Y-97155000D02*
X171440000Y-97155000D01*
G04 #@! TO.N,Net-(R3-Pad1)*
X164940000Y-95885000D02*
X166040000Y-95885000D01*
X166040000Y-95885000D02*
X167940200Y-97785200D01*
X167940200Y-97785200D02*
X171503400Y-97785200D01*
X171503400Y-97785200D02*
X171900300Y-97388300D01*
X171900300Y-97388300D02*
X171900300Y-92818300D01*
X171900300Y-92818300D02*
X166498500Y-87416500D01*
X166498500Y-87416500D02*
X166498500Y-85833100D01*
X166498500Y-85833100D02*
X169781600Y-82550000D01*
X169781600Y-82550000D02*
X171450000Y-82550000D01*
G04 #@! TO.N,Net-(U1-Pad1)*
X170340000Y-98425000D02*
X175258100Y-98425000D01*
X175258100Y-98425000D02*
X185794300Y-87888800D01*
X185794300Y-87888800D02*
X195044200Y-87888800D01*
X195044200Y-87888800D02*
X195143400Y-87988000D01*
X195143400Y-87988000D02*
X195143400Y-91133500D01*
X195143400Y-91133500D02*
X197091100Y-93081200D01*
X197091100Y-93081200D02*
X200952200Y-93081200D01*
X200952200Y-93081200D02*
X207365400Y-99494400D01*
X207365400Y-99494400D02*
X207365400Y-100845800D01*
X207365400Y-100845800D02*
X203863100Y-104348100D01*
X203863100Y-104348100D02*
X196011800Y-104348100D01*
X196011800Y-106019600D02*
X196011800Y-104348100D01*
G04 #@! TO.N,Net-(U1-Pad7)*
X192608000Y-89979500D02*
X192608200Y-89979300D01*
X192608200Y-89979300D02*
X192608200Y-89560400D01*
X192608000Y-89979500D02*
X192608000Y-89560400D01*
X164940000Y-97155000D02*
X164470000Y-97155000D01*
X164470000Y-97155000D02*
X162560000Y-99065100D01*
X162560000Y-99065100D02*
X162560000Y-101600000D01*
X162560000Y-101600000D02*
X172720000Y-101600000D01*
X172720000Y-101600000D02*
X179070000Y-95250000D01*
X179070000Y-95250000D02*
X187757000Y-95250000D01*
X187757000Y-95250000D02*
X192608000Y-90398600D01*
X192608000Y-90398600D02*
X192608000Y-89979500D01*
G04 #@! TD*
M02*
