M48
;DRILL file {KiCad (5.0.2)-1} date 3/18/2019 8:08:25 PM
;FORMAT={-:-/ absolute / inch / decimal}
FMAT,2
INCH,TZ
T1C0.0157
T2C0.0315
T3C0.0512
%
G90
G05
T1
X6.4504Y-3.9087
X6.6967Y-3.6887
X7.7555Y-3.6203
T2
X6.05Y-4.45
X6.1484Y-4.45
X6.75Y-3.4
X7.15Y-3.4
X6.2Y-3.4
X6.6Y-3.4
X6.9516Y-4.05
X7.05Y-4.05
X7.25Y-4.2
X7.3484Y-4.2
X5.95Y-3.55
X6.35Y-3.55
X7.2516Y-4.05
X7.35Y-4.05
X6.2Y-3.25
X6.6Y-3.25
X5.95Y-4.2
X6.35Y-4.2
X6.05Y-4.6
X6.1484Y-4.6
X6.95Y-4.2
X7.0484Y-4.2
X6.75Y-3.25
X7.15Y-3.25
T3
X8.1Y-3.55
X8.1Y-3.7469
X8.1Y-3.9437
X8.1Y-4.1406
X6.4594Y-4.55
X6.6563Y-4.55
X6.8531Y-4.55
X7.05Y-4.55
T0
M30
